<svg xmlns="http://www.w3.org/2000/svg" version="1.1" xmlns:xlink="http://www.w3.org/1999/xlink" xmlns:svgjs="http://svgjs.dev/svgjs" viewBox="0 0 13.188876969208419 3.209122229503672"><g transform="matrix(1,0,0,1,2.9561644283821535,0.5655111147518357)"><g><path d=" M 0.97875 0.6044999999999998 Q 1.038 0.6719999999999999 1.038 0.7799999999999998 Q 1.038 0.9134999999999999 0.9405 0.9854999999999998 Q 0.843 1.0574999999999999 0.651 1.0574999999999999 L 0.183 1.0574999999999999 L 0.183 0.00749999999999984 L 0.621 0.00749999999999984 Q 0.792 0.00749999999999984 0.88725 0.07724999999999982 Q 0.9825 0.1469999999999999 0.9825 0.2759999999999999 Q 0.9825 0.3659999999999999 0.93525 0.4274999999999999 Q 0.888 0.4889999999999999 0.807 0.5159999999999999 Q 0.9195 0.5369999999999999 0.97875 0.6044999999999998 Z M 0.2595 0.0734999999999999 L 0.2595 0.4919999999999999 L 0.618 0.4919999999999999 Q 0.756 0.4919999999999999 0.83025 0.43874999999999986 Q 0.9045 0.38549999999999984 0.9045 0.2819999999999999 Q 0.9045 0.17999999999999983 0.83025 0.12674999999999992 Q 0.756 0.0734999999999999 0.618 0.0734999999999999 L 0.2595 0.0734999999999999 Z M 0.88275 0.9382499999999999 Q 0.9615 0.8849999999999999 0.9615 0.7739999999999998 Q 0.9615 0.6629999999999998 0.88275 0.6104999999999998 Q 0.804 0.5579999999999998 0.651 0.5579999999999998 L 0.2595 0.5579999999999998 L 0.2595 0.9914999999999998 L 0.651 0.9914999999999998 Q 0.804 0.9914999999999998 0.88275 0.9382499999999999 Z M 2.0549296875 1.0574999999999999 L 1.8044296875 0.7064999999999999 Q 1.7489296875 0.7139999999999999 1.7024296875 0.7139999999999999 L 1.4024296875000002 0.7139999999999999 L 1.4024296875000002 1.0574999999999999 L 1.3259296875000002 1.0574999999999999 L 1.3259296875000002 0.00749999999999984 L 1.7024296875 0.00749999999999984 Q 1.9004296875000002 0.00749999999999984 2.0129296875000002 0.10124999999999984 Q 2.1254296875 0.19499999999999984 2.1254296875 0.3614999999999998 Q 2.1254296875 0.4859999999999999 2.0616796875000003 0.5707499999999999 Q 1.9979296875 0.6554999999999999 1.8794296875 0.69 L 2.1419296875000002 1.0574999999999999 L 2.0549296875 1.0574999999999999 Z M 1.7024296875 0.6464999999999999 Q 1.8704296875000002 0.6464999999999999 1.9589296875000002 0.5722499999999999 Q 2.0474296875 0.4979999999999999 2.0474296875 0.3614999999999998 Q 2.0474296875 0.22499999999999987 1.9589296875000002 0.15074999999999983 Q 1.8704296875000002 0.0764999999999999 1.7024296875 0.0764999999999999 L 1.4024296875000002 0.0764999999999999 L 1.4024296875000002 0.6464999999999999 L 1.7024296875 0.6464999999999999 Z M 3.1453857421875 0.9884999999999999 L 3.1453857421875 1.0574999999999999 L 2.4208857421875 1.0574999999999999 L 2.4208857421875 0.00749999999999984 L 3.1228857421875 0.00749999999999984 L 3.1228857421875 0.0764999999999999 L 2.4973857421875003 0.0764999999999999 L 2.4973857421875003 0.4904999999999998 L 3.0568857421875 0.4904999999999998 L 3.0568857421875 0.5579999999999998 L 2.4973857421875003 0.5579999999999998 L 2.4973857421875003 0.9884999999999999 L 3.1453857421875 0.9884999999999999 Z M 4.2943037109375 0.00749999999999984 L 4.2943037109375 1.0574999999999999 L 4.2313037109375005 1.0574999999999999 L 3.5158037109375004 0.14549999999999985 L 3.5158037109375004 1.0574999999999999 L 3.4393037109375 1.0574999999999999 L 3.4393037109375 0.00749999999999984 L 3.5038037109375004 0.00749999999999984 L 4.217803710937501 0.9194999999999999 L 4.217803710937501 0.00749999999999984 L 4.2943037109375 0.00749999999999984 Z M 4.876250976562501 0.0764999999999999 L 4.498250976562501 0.0764999999999999 L 4.498250976562501 0.00749999999999984 L 5.3307509765625 0.00749999999999984 L 5.3307509765625 0.0764999999999999 L 4.9527509765625 0.0764999999999999 L 4.9527509765625 1.0574999999999999 L 4.876250976562501 1.0574999999999999 L 4.876250976562501 0.0764999999999999 Z M 5.99142041015625 1.0252499999999998 Q 5.88717041015625 0.9854999999999998 5.82867041015625 0.9224999999999999 L 5.86317041015625 0.8654999999999999 Q 5.91867041015625 0.9239999999999999 6.01242041015625 0.9607499999999999 Q 6.10617041015625 0.9974999999999998 6.209670410156249 0.9974999999999998 Q 6.35967041015625 0.9974999999999998 6.43617041015625 0.9404999999999999 Q 6.51267041015625 0.8834999999999998 6.51267041015625 0.7919999999999998 Q 6.51267041015625 0.7214999999999998 6.47217041015625 0.6794999999999999 Q 6.43167041015625 0.6375 6.37167041015625 0.6149999999999999 Q 6.31167041015625 0.5924999999999998 6.209670410156249 0.5684999999999999 Q 6.0941704101562495 0.5399999999999999 6.0244204101562495 0.5129999999999999 Q 5.9546704101562495 0.4859999999999999 5.9059204101562495 0.42974999999999985 Q 5.85717041015625 0.37349999999999983 5.85717041015625 0.2789999999999999 Q 5.85717041015625 0.2024999999999999 5.89767041015625 0.13874999999999982 Q 5.93817041015625 0.07499999999999984 6.021420410156249 0.03749999999999987 Q 6.10467041015625 -2.220446049250313e-16 6.22917041015625 -2.220446049250313e-16 Q 6.31617041015625 -2.220446049250313e-16 6.4001704101562495 0.025499999999999856 Q 6.48417041015625 0.050999999999999934 6.54567041015625 0.09449999999999992 L 6.5171704101562495 0.15599999999999992 Q 6.45417041015625 0.11249999999999982 6.37842041015625 0.08999999999999986 Q 6.302670410156249 0.0674999999999999 6.22917041015625 0.0674999999999999 Q 6.08367041015625 0.0674999999999999 6.00867041015625 0.1259999999999999 Q 5.93367041015625 0.1844999999999999 5.93367041015625 0.27749999999999986 Q 5.93367041015625 0.34799999999999986 5.97417041015625 0.3899999999999999 Q 6.01467041015625 0.43199999999999983 6.07467041015625 0.4544999999999999 Q 6.13467041015625 0.47699999999999987 6.23817041015625 0.5024999999999998 Q 6.35367041015625 0.5309999999999999 6.4226704101562495 0.5579999999999998 Q 6.4916704101562495 0.5849999999999999 6.5404204101562495 0.6397499999999998 Q 6.58917041015625 0.6944999999999999 6.58917041015625 0.7874999999999999 Q 6.58917041015625 0.8639999999999999 6.54792041015625 0.9269999999999998 Q 6.50667041015625 0.9899999999999999 6.42117041015625 1.0274999999999999 Q 6.33567041015625 1.065 6.2111704101562495 1.065 Q 6.0956704101562496 1.065 5.99142041015625 1.0252499999999998 Z M 7.513092041015625 0.7619999999999999 L 6.904092041015624 0.7619999999999999 L 6.770592041015624 1.0574999999999999 L 6.688092041015625 1.0574999999999999 L 7.1710920410156245 0.00749999999999984 L 7.247592041015625 0.00749999999999984 L 7.730592041015624 1.0574999999999999 L 7.648092041015625 1.0574999999999999 L 7.513092041015625 0.7619999999999999 Z M 7.484592041015625 0.6974999999999999 L 7.208592041015624 0.09149999999999991 L 6.934092041015624 0.6974999999999999 L 7.484592041015625 0.6974999999999999 Z M 8.012526123046873 0.0764999999999999 L 8.012526123046873 0.5249999999999999 L 8.572026123046875 0.5249999999999999 L 8.572026123046875 0.5939999999999999 L 8.012526123046873 0.5939999999999999 L 8.012526123046873 1.0574999999999999 L 7.936026123046874 1.0574999999999999 L 7.936026123046874 0.00749999999999984 L 8.638026123046874 0.00749999999999984 L 8.638026123046874 0.0764999999999999 L 8.012526123046873 0.0764999999999999 Z M 9.621998291015625 0.9884999999999999 L 9.621998291015625 1.0574999999999999 L 8.897498291015625 1.0574999999999999 L 8.897498291015625 0.00749999999999984 L 9.599498291015625 0.00749999999999984 L 9.599498291015625 0.0764999999999999 L 8.973998291015624 0.0764999999999999 L 8.973998291015624 0.4904999999999998 L 9.533498291015626 0.4904999999999998 L 9.533498291015626 0.5579999999999998 L 8.973998291015624 0.5579999999999998 L 8.973998291015624 0.9884999999999999 L 9.621998291015625 0.9884999999999999 Z" fill="#5b6375" fill-rule="nonzero"></path></g><g><path d=" M 0.173625 2.0477250000000002 Q 0.11025 2.0128500000000003 0.074625 1.9521000000000002 Q 0.039 1.89135 0.039 1.8156 Q 0.039 1.7398500000000001 0.074625 1.6791 Q 0.11025 1.61835 0.173625 1.583475 Q 0.23700000000000002 1.5486 0.315 1.5486 Q 0.393 1.5486 0.455625 1.5831 Q 0.51825 1.6176 0.55425 1.678725 Q 0.59025 1.7398500000000001 0.59025 1.8156 Q 0.59025 1.89135 0.55425 1.952475 Q 0.51825 2.0136000000000003 0.455625 2.0481000000000003 Q 0.393 2.0826000000000002 0.315 2.0826000000000002 Q 0.23700000000000002 2.0826000000000002 0.173625 2.0477250000000002 Z M 0.4275 2.004975 Q 0.47775 1.97685 0.50625 1.926975 Q 0.5347500000000001 1.8771 0.5347500000000001 1.8156 Q 0.5347500000000001 1.7541 0.50625 1.704225 Q 0.47775 1.65435 0.4275 1.626225 Q 0.37725000000000003 1.5981 0.315 1.5981 Q 0.25275000000000003 1.5981 0.202125 1.626225 Q 0.1515 1.65435 0.122625 1.704225 Q 0.09375 1.7541 0.09375 1.8156 Q 0.09375 1.8771 0.122625 1.926975 Q 0.1515 1.97685 0.202125 2.004975 Q 0.25275000000000003 2.0331 0.315 2.0331 Q 0.37725000000000003 2.0331 0.4275 2.004975 Z M 0.7777419433593751 1.6011 L 0.7777419433593751 1.80735 L 1.0492419433593752 1.80735 L 1.0492419433593752 1.85535 L 0.7777419433593751 1.85535 L 0.7777419433593751 2.0781 L 0.7222419433593751 2.0781 L 0.7222419433593751 1.5531000000000001 L 1.082241943359375 1.5531000000000001 L 1.082241943359375 1.6011 L 0.7777419433593751 1.6011 Z M 1.2599886474609376 1.6011 L 1.2599886474609376 1.80735 L 1.5314886474609377 1.80735 L 1.5314886474609377 1.85535 L 1.2599886474609376 1.85535 L 1.2599886474609376 2.0781 L 1.2044886474609375 2.0781 L 1.2044886474609375 1.5531000000000001 L 1.5644886474609376 1.5531000000000001 L 1.5644886474609376 1.6011 L 1.2599886474609376 1.6011 Z M 1.6867353515625 1.5531000000000001 L 1.7422353515625002 1.5531000000000001 L 1.7422353515625002 2.0301 L 2.0362353515625 2.0301 L 2.0362353515625 2.0781 L 1.6867353515625 2.0781 L 1.6867353515625 1.5531000000000001 Z M 2.1359772949218754 1.5531000000000001 L 2.1914772949218753 1.5531000000000001 L 2.1914772949218753 2.0781 L 2.1359772949218754 2.0781 L 2.1359772949218754 1.5531000000000001 Z M 2.8086829833984375 1.5531000000000001 L 2.8086829833984375 2.0781 L 2.7629329833984375 2.0781 L 2.4254329833984376 1.6521000000000001 L 2.4254329833984376 2.0781 L 2.3699329833984377 2.0781 L 2.3699329833984377 1.5531000000000001 L 2.4156829833984377 1.5531000000000001 L 2.7539329833984376 1.9791 L 2.7539329833984376 1.5531000000000001 L 2.8086829833984375 1.5531000000000001 Z M 3.3584241943359374 2.0301 L 3.3584241943359374 2.0781 L 2.9871741943359376 2.0781 L 2.9871741943359376 1.5531000000000001 L 3.3471741943359374 1.5531000000000001 L 3.3471741943359374 1.6011 L 3.0426741943359374 1.6011 L 3.0426741943359374 1.7878500000000002 L 3.3141741943359375 1.7878500000000002 L 3.3141741943359375 1.8351000000000002 L 3.0426741943359374 1.8351000000000002 L 3.0426741943359374 2.0301 L 3.3584241943359374 2.0301 Z M 4.054355346679688 1.6011 Q 4.111355346679687 1.6491 4.111355346679687 1.7331 Q 4.111355346679687 1.8171 4.054355346679688 1.864725 Q 3.9973553466796874 1.91235 3.8968553466796876 1.91235 L 3.7558553466796876 1.91235 L 3.7558553466796876 2.0781 L 3.7003553466796877 2.0781 L 3.7003553466796877 1.5531000000000001 L 3.8968553466796876 1.5531000000000001 Q 3.9973553466796874 1.5531000000000001 4.054355346679688 1.6011 Z M 4.014605346679687 1.829475 Q 4.055855346679688 1.79535 4.055855346679688 1.7331 Q 4.055855346679688 1.6693500000000001 4.014605346679687 1.6352250000000002 Q 3.9733553466796874 1.6011 3.8953553466796875 1.6011 L 3.7558553466796876 1.6011 L 3.7558553466796876 1.8636000000000001 L 3.8953553466796875 1.8636000000000001 Q 3.9733553466796874 1.8636000000000001 4.014605346679687 1.829475 Z M 4.541789794921875 1.93785 L 4.249289794921875 1.93785 L 4.1862897949218745 2.0781 L 4.128539794921875 2.0781 L 4.368539794921875 1.5531000000000001 L 4.423289794921875 1.5531000000000001 L 4.663289794921875 2.0781 L 4.604789794921875 2.0781 L 4.541789794921875 1.93785 Z M 4.521539794921875 1.8928500000000001 L 4.395539794921875 1.6108500000000001 L 4.269539794921875 1.8928500000000001 L 4.521539794921875 1.8928500000000001 Z M 5.1117747802734375 1.6011 Q 5.168774780273438 1.6491 5.168774780273438 1.7331 Q 5.168774780273438 1.8171 5.1117747802734375 1.864725 Q 5.054774780273438 1.91235 4.954274780273438 1.91235 L 4.813274780273438 1.91235 L 4.813274780273438 2.0781 L 4.757774780273437 2.0781 L 4.757774780273437 1.5531000000000001 L 4.954274780273438 1.5531000000000001 Q 5.054774780273438 1.5531000000000001 5.1117747802734375 1.6011 Z M 5.072024780273438 1.829475 Q 5.1132747802734375 1.79535 5.1132747802734375 1.7331 Q 5.1132747802734375 1.6693500000000001 5.072024780273438 1.6352250000000002 Q 5.030774780273438 1.6011 4.952774780273438 1.6011 L 4.813274780273438 1.6011 L 4.813274780273438 1.8636000000000001 L 4.952774780273438 1.8636000000000001 Q 5.030774780273438 1.8636000000000001 5.072024780273438 1.829475 Z M 5.667484863281251 2.0301 L 5.667484863281251 2.0781 L 5.29623486328125 2.0781 L 5.29623486328125 1.5531000000000001 L 5.6562348632812505 1.5531000000000001 L 5.6562348632812505 1.6011 L 5.3517348632812505 1.6011 L 5.3517348632812505 1.7878500000000002 L 5.62323486328125 1.7878500000000002 L 5.62323486328125 1.8351000000000002 L 5.3517348632812505 1.8351000000000002 L 5.3517348632812505 2.0301 L 5.667484863281251 2.0301 Z M 6.163943847656251 2.0781 L 6.043943847656251 1.90935 Q 6.023693847656251 1.9116 6.001943847656251 1.9116 L 5.860943847656251 1.9116 L 5.860943847656251 2.0781 L 5.80544384765625 2.0781 L 5.80544384765625 1.5531000000000001 L 6.001943847656251 1.5531000000000001 Q 6.102443847656251 1.5531000000000001 6.1594438476562505 1.6011 Q 6.216443847656251 1.6491 6.216443847656251 1.7331 Q 6.216443847656251 1.7946 6.185318847656251 1.836975 Q 6.15419384765625 1.87935 6.096443847656251 1.8981000000000001 L 6.224693847656251 2.0781 L 6.163943847656251 2.0781 Z M 6.119693847656251 1.82985 Q 6.160943847656251 1.79535 6.160943847656251 1.7331 Q 6.160943847656251 1.6693500000000001 6.119693847656251 1.6352250000000002 Q 6.078443847656251 1.6011 6.000443847656251 1.6011 L 5.860943847656251 1.6011 L 5.860943847656251 1.86435 L 6.000443847656251 1.86435 Q 6.078443847656251 1.86435 6.119693847656251 1.82985 Z M 7.279887084960939 1.5531000000000001 L 7.102887084960939 2.0781 L 7.044387084960939 2.0781 L 6.890637084960939 1.63035 L 6.736137084960939 2.0781 L 6.678387084960939 2.0781 L 6.501387084960939 1.5531000000000001 L 6.5583870849609385 1.5531000000000001 L 6.709887084960939 2.0046 L 6.866637084960939 1.5531000000000001 L 6.918387084960939 1.5531000000000001 L 7.072887084960939 2.00685 L 7.226637084960939 1.5531000000000001 L 7.279887084960939 1.5531000000000001 Z M 7.702100463867189 1.93785 L 7.409600463867189 1.93785 L 7.346600463867189 2.0781 L 7.288850463867189 2.0781 L 7.528850463867189 1.5531000000000001 L 7.583600463867189 1.5531000000000001 L 7.823600463867189 2.0781 L 7.765100463867189 2.0781 L 7.702100463867189 1.93785 Z M 7.681850463867189 1.8928500000000001 L 7.5558504638671895 1.6108500000000001 L 7.429850463867189 1.8928500000000001 L 7.681850463867189 1.8928500000000001 Z M 7.918085449218752 1.5531000000000001 L 7.973585449218752 1.5531000000000001 L 7.973585449218752 2.0301 L 8.267585449218751 2.0301 L 8.267585449218751 2.0781 L 7.918085449218752 2.0781 L 7.918085449218752 1.5531000000000001 Z M 8.367327392578126 1.5531000000000001 L 8.422827392578126 1.5531000000000001 L 8.422827392578126 2.0301 L 8.716827392578127 2.0301 L 8.716827392578127 2.0781 L 8.367327392578126 2.0781 L 8.367327392578126 1.5531000000000001 Z M 9.187819335937501 2.0301 L 9.187819335937501 2.0781 L 8.816569335937501 2.0781 L 8.816569335937501 1.5531000000000001 L 9.1765693359375 1.5531000000000001 L 9.1765693359375 1.6011 L 8.872069335937502 1.6011 L 8.872069335937502 1.7878500000000002 L 9.143569335937501 1.7878500000000002 L 9.143569335937501 1.8351000000000002 L 8.872069335937502 1.8351000000000002 L 8.872069335937502 2.0301 L 9.187819335937501 2.0301 Z M 9.427778320312502 1.6011 L 9.243278320312502 1.6011 L 9.243278320312502 1.5531000000000001 L 9.667778320312502 1.5531000000000001 L 9.667778320312502 1.6011 L 9.483278320312502 1.6011 L 9.483278320312502 2.0781 L 9.427778320312502 2.0781 L 9.427778320312502 1.6011 Z" fill="#73bcc4" fill-rule="nonzero"></path></g><g clip-path="url(&quot;#SvgjsClipPath1009&quot;)"><g clip-path="url(&quot;#SvgjsClipPath1008&quot;)"><path d=" M -2.3954199353746657 0.36060088428820836 L -2.0367069979688965 0.1533586041968885 L -1.6963733453418712 0.3501437050175458 C -1.526507311798602 0.45132964970427925 -1.3148608355229112 0.45132964970427925 -1.144994801979648 0.3501437050175487 L -0.8046611493526226 0.1533586041968885 L -0.4459482119468534 0.36060088428820836 L -1.0138047347658785 0.6885760523226324 C -1.2645232842534893 0.8378409171218116 -1.576844863068024 0.8378409171218116 -1.827563412555635 0.6885760523226324 Z" fill="#0691ca" transform="matrix(1,0,0,1,0,0)" fill-rule="evenodd"></path></g><g clip-path="url(&quot;#SvgjsClipPath1008&quot;)"><path d=" M -1.3744189774935835 2.1288148336911945 L -1.01602292430814 1.9215725535998773 L -1.01602292430814 1.528636120399211 C -1.0187330536230395 1.3309217674763278 -0.9129079468239754 1.1476132204117464 -0.7403336526270254 1.0510916003722766 L -0.3999999999999999 0.8546233837719447 L -0.3999999999999999 0.44045570780963345 L -0.9675396385987052 0.7681139916237348 C -1.2222717205769307 0.9105104223447962 -1.3784714056896268 1.1810619018546353 -1.3744189774935893 1.4728644976223462 Z" fill="#004883" transform="matrix(1,0,0,1,0,0)" fill-rule="evenodd"></path></g><g clip-path="url(&quot;#SvgjsClipPath1008&quot;)"><path d=" M -2.4413681473215134 0.44045570780963345 L -2.4413681473215134 0.8546233837719447 L -2.101034494694488 1.051408484592602 C -1.928561020399401 1.1478757476545578 -1.8227520437744391 1.3310347347777598 -1.8253452230133793 1.5286361203992138 L -1.8253452230133793 1.9215725535998804 L -1.46694916982793 2.128814833691197 L -1.46694916982793 1.4725476134020234 C -1.4630137632499531 1.180857978919296 -1.6191973002743554 0.9104561075756524 -1.8738285087228257 0.7681139916237348 Z" fill="#004883" transform="matrix(1,0,0,1,0,0)" fill-rule="evenodd"></path></g><g clip-path="url(&quot;#SvgjsClipPath1008&quot;)"><path d=" M -1.892841561942203 0.08047523352257363 L -1.9124883836022373 0.09188306545420705 L -1.6507420176153433 0.2379666910231623 C -1.6149325593271602 0.2588353275539594 -1.576593416261814 0.2750229657371066 -1.5366636982990267 0.28613309251227725 C -1.4983525858855264 0.2966089405778247 -1.4588171942200734 0.30193716047883074 -1.4190996525591464 0.30197730352843377 C -1.379382110898225 0.30193716047883074 -1.3398467192327659 0.2966089405778247 -1.3015356068192716 0.28613309251227725 C -1.2619296232792552 0.27510295858149 -1.2239080388335388 0.25902099989436844 -1.18840794016392 0.23828357524348498 L -0.9279291110583168 0.08871422325097456 L -0.9310979532615493 0.08681291792903567 C -1.0757852065954492 -0.0012395963110384267 -1.2414978682803421 -0.048742433280156955 -1.4108606628307454 -0.050714833691196004 C -1.5803655529940044 -0.05090025806264352 -1.7468144457887305 -0.005594642272360485 -1.892841561942203 0.08047523352257072 Z" fill="#004883" transform="matrix(1,0,0,1,0,0)" fill-rule="evenodd"></path></g><g clip-path="url(&quot;#SvgjsClipPath1008&quot;)"><path d=" M -0.40792210550808106 1.0146499150351205 L -0.40792210550808106 0.9918342511718536 L -0.6655489766307718 1.1455230980285647 C -0.7014592153768144 1.166013142211987 -0.7345818441246319 1.1910414951243242 -0.7640999691512633 1.2199908898044987 C -0.7924425657076408 1.248281664252828 -0.8168503013719994 1.2802568638131255 -0.8366664556052554 1.315056155901432 C -0.8565260330727384 1.3494145946102374 -0.8716616059317477 1.3862942298864211 -0.8816640148911379 1.4246980961332283 C -0.8919670773991437 1.4644323501654835 -0.8970797632126193 1.5053338366733058 -0.8968744574666492 1.5463816367373064 L -0.8968744574666492 1.8471047618239433 L -0.8937056152634166 1.8452034565020046 C -0.7451981201140649 1.7638088726876644 -0.6212203035012807 1.6440986066908516 -0.5346757936373219 1.4985321194685142 C -0.44987140681824633 1.3514924748471955 -0.4060966596779729 1.184382377639199 -0.40792210550808106 1.0146499150351205 Z" fill="#0691ca" transform="matrix(1,0,0,1,0,0)" fill-rule="evenodd"></path></g><g clip-path="url(&quot;#SvgjsClipPath1008&quot;)"><path d=" M -2.433446041813438 1.0146499150351205 L -2.433446041813438 0.9918342511718536 L -2.1758191706907417 1.1455230980285647 C -2.1400156226677636 1.1661745846451403 -2.1069124717186587 1.1911882196066832 -2.0772681781702502 1.2199908898044987 C -2.0489255816138723 1.248281664252828 -2.024517845949514 1.2802568638131255 -2.004701691716258 1.315056155901432 C -1.9849738228359635 1.3494791696133115 -1.9698456409849407 1.3863407958136829 -1.9597041324303754 1.4246980961332283 C -1.9495639903210948 1.4644633494837451 -1.9444539221736903 1.5053438946629842 -1.9444936898548644 1.5463816367373064 L -1.9444936898548644 1.8471047618239433 L -1.947662532058097 1.8452034565020046 C -2.0955564181101245 1.7632251893081536 -2.218853391970855 1.6432102999335199 -2.3047910483622553 1.497581466807549 C -2.390095229234284 1.351007629943896 -2.434523820244229 1.1842362686159293 -2.433446041813438 1.0146499150351205 Z" fill="#0691ca" transform="matrix(1,0,0,1,0,0)" fill-rule="evenodd"></path></g></g></g><defs><clipPath id="SvgjsClipPath1009"><path d=" M -2.4413681473215134 -0.050714833691196004 h 2.0413681473215135 v 2.179529667382392 h -2.0413681473215135 Z"></path></clipPath><clipPath id="SvgjsClipPath1008"><path d=" M -2.4413681473215134 -0.050714833691196004 L -0.3999999999999999 -0.050714833691196004 L -0.3999999999999999 2.1288148336911963 L -2.441368147321514 2.1288148336911963 Z"></path></clipPath></defs></svg>