<svg fill="none" height="269" viewBox="0 0 269 269" width="269" xmlns="http://www.w3.org/2000/svg"><circle cx="134.5" cy="134.5" fill="#2a3150" r="134.5"/><path d="m134 124c26.51 0 48-21.49 48-48 0-26.5097-21.49-48-48-48s-48 21.4903-48 48c0 26.51 21.49 48 48 48z" fill="#88bdf3"/><path d="m134 240c26.51 0 48-21.49 48-48s-21.49-48-48-48-48 21.49-48 48 21.49 48 48 48z" fill="#3075ee"/><path d="m192 182c26.51 0 48-21.49 48-48s-21.49-48-48-48-48 21.49-48 48 21.49 48 48 48z" fill="#5795f1"/><path d="m76 182c26.51 0 48-21.49 48-48s-21.49-48-48-48c-26.5097 0-48 21.49-48 48s21.4903 48 48 48z" fill="#205fec"/><path d="m122.7 122.7c-8.556-2.08-16.374-6.474-22.6-12.7-6.2261-6.226-10.6197-14.0445-12.7-22.6001 8.5405 2.112 16.342 6.5161 22.563 12.7371s10.625 14.022 12.737 22.563z" fill="#134bef"/><path d="m87.3 180.7c2.0803-8.556 6.4739-16.374 12.6999-22.6 6.2261-6.226 14.0441-10.62 22.6001-12.7-2.112 8.54-6.516 16.342-12.737 22.563s-14.0225 10.625-22.563 12.737z" fill="#0932e8"/><path d="m145.3 145.3c8.556 2.08 16.374 6.474 22.6 12.7s10.62 14.044 12.7 22.6c-8.54-2.112-16.342-6.516-22.563-12.737s-10.625-14.022-12.737-22.563z" fill="#164bea"/><path d="m180.7 87.3c-2.08 8.5556-6.474 16.374-12.7 22.6s-14.044 10.62-22.6 12.7c2.112-8.54 6.516-16.342 12.737-22.563 6.221-6.2209 14.023-10.625 22.563-12.737z" fill="#3170f1"/></svg>