<svg fill="none" height="32" viewBox="0 0 32 32" width="32" xmlns="http://www.w3.org/2000/svg"><path d="m16 32c8.8366 0 16-7.1634 16-16 0-8.83656-7.1634-16-16-16-8.83656 0-16 7.16344-16 16 0 8.8366 7.16344 16 16 16z" fill="#ff0420"/><g fill="#fff"><path d="m11.3555 20c-.986 0-1.79375-.2074-2.42341-.6222-.62139-.4223-.93209-1.0222-.93209-1.8 0-.163.02073-.363.06213-.6001.10776-.5333.26102-1.174.45985-1.9222.56337-2.037 2.01742-3.0555 4.36212-3.0555.6379 0 1.2096.0963 1.715.2889.5054.1851.9031.4666 1.193.8444.29.3704.4351.8148.4351 1.3333 0 .1556-.0208.3519-.0622.5889-.1243.6593-.2734 1.3001-.4474 1.9222-.29 1.0149-.7912 1.7741-1.5038 2.2778-.7125.4963-1.6652.7445-2.8583.7445zm.1739-1.6c.4641 0 .8576-.1222 1.1807-.3667.3314-.2444.5675-.6185.7084-1.1222.1905-.6963.3355-1.3037.435-1.8222.0331-.1556.0496-.3148.0496-.4778 0-.6741-.3935-1.0111-1.1806-1.0111-.464 0-.8616.1222-1.1931.3666-.323.2445-.555.6186-.6959 1.1223-.1491.4963-.2983 1.1037-.4474 1.8222-.0331.1481-.0497.3037-.0497.4666 0 .6816.3977 1.0223 1.193 1.0223z"/><path d="m16.7977 19.8889c-.0911 0-.1616-.0259-.2112-.0778-.0415-.0593-.0539-.1259-.0373-.2l1.715-7.2222c.0165-.0815.0621-.1482.1367-.2001.0746-.0518.1533-.0777.2361-.0777h3.3058c.9196 0 1.657.1704 2.2121.5111.5634.3408.8451.8333.8451 1.4778 0 .1851-.0248.3778-.0746.5777-.2071.8519-.6255 1.4816-1.2551 1.889-.6214.4074-1.4748.6111-2.5602.6111h-1.6777l-.5717 2.4333c-.0166.0815-.0621.1481-.1367.2-.0745.0519-.1533.0778-.2361.0778zm4.3994-4.2445c.348 0 .6504-.0852.9072-.2555.2652-.1704.4391-.4148.522-.7334.0248-.1259.0373-.237.0373-.3333 0-.2148-.0704-.3778-.2113-.4889-.1409-.1185-.3811-.1777-.7208-.1777h-1.4913l-.4723 1.9888z"/></g></svg>