<svg fill="none" height="100" viewBox="0 0 100 100" width="100" xmlns="http://www.w3.org/2000/svg"><path d="m50 100c27.6142 0 50-22.3858 50-50s-22.3858-50-50-50-50 22.3858-50 50 22.3858 50 50 50z" fill="#8247e5"/><path d="m66.5497 39.3023c-1.1992-.6976-2.7583-.6976-4.0775 0l-9.3543 5.3489-6.356 3.4884-9.3542 5.3488c-1.1993.6976-2.7583.6976-4.0775 0l-7.4355-4.1861c-1.1992-.6976-2.0387-1.9767-2.0387-3.3721v-8.2558c0-1.3953.7196-2.6744 2.0387-3.3721l7.3155-4.0698c1.1992-.6976 2.7583-.6976 4.0776 0l7.3154 4.0698c1.1993.6977 2.0388 1.9768 2.0388 3.3721v5.3488l6.356-3.6046v-5.3489c0-1.3953-.7195-2.6744-2.0387-3.372l-13.5516-7.6745c-1.1993-.6976-2.7583-.6976-4.0775 0l-13.7916 7.6745c-1.3192.6976-2.0387 1.9767-2.0387 3.372v15.4652c0 1.3953.7195 2.6744 2.0387 3.372l13.7916 7.6745c1.1993.6977 2.7583.6977 4.0775 0l9.3542-5.2326 6.356-3.6047 9.3543-5.2325c1.1993-.6976 2.7583-.6976 4.0775 0l7.3155 4.0697c1.1992.6978 2.0388 1.9768 2.0388 3.3722v8.2558c0 1.3954-.7196 2.6744-2.0388 3.372l-7.3155 4.1862c-1.1992.6976-2.7583.6976-4.0775 0l-7.3155-4.0698c-1.1992-.6977-2.0388-1.9768-2.0388-3.3721v-5.3488l-6.356 3.6046v5.3488c0 1.3954.7195 2.6745 2.0388 3.3721l13.7915 7.6745c1.1992.6976 2.7583.6976 4.0774 0l13.7915-7.6745c1.1993-.6976 2.0388-1.9767 2.0388-3.3721v-15.4651c0-1.3954-.7196-2.6744-2.0388-3.3721z" fill="#fff"/></svg>